<svg width="16" height="17" viewBox="0 0 16 17" fill="none" xmlns="http://www.w3.org/2000/svg">
<path d="M9.6001 9V16.1978" stroke="#FBFBFB" stroke-width="1.2"/>
<path d="M0.600098 9L0.600098 16.1978" stroke="#FBFBFB" stroke-width="1.2"/>
<path d="M9.6001 0V7.19782" stroke="#FBFBFB" stroke-width="1.2"/>
<path d="M6.2002 0L6.2001 7.21022" stroke="#FBFBFB" stroke-width="1.2"/>
<path d="M15.2002 9L15.2001 16.2102" stroke="#FBFBFB" stroke-width="1.2"/>
<path d="M6.2002 9L6.2001 16.2102" stroke="#FBFBFB" stroke-width="1.2"/>
<path d="M15.2002 0L15.2001 7.21022" stroke="#FBFBFB" stroke-width="1.2"/>
<line x1="6.6001" y1="0.6" x2="0.600098" y2="0.6" stroke="#FBFBFB" stroke-width="1.2"/>
<line x1="15.6001" y1="9.6" x2="9.6001" y2="9.6" stroke="#FBFBFB" stroke-width="1.2"/>
<line x1="6.6001" y1="9.6" x2="0.600098" y2="9.6" stroke="#FBFBFB" stroke-width="1.2"/>
<path d="M0.600098 0L0.600098 7.19782" stroke="#FBFBFB" stroke-width="1.2"/>
<line x1="15.6001" y1="0.6" x2="9.6001" y2="0.6" stroke="#FBFBFB" stroke-width="1.2"/>
<line x1="6.6001" y1="6.6" x2="0.600098" y2="6.6" stroke="#FBFBFB" stroke-width="1.2"/>
<line x1="15.6001" y1="15.6" x2="9.6001" y2="15.6" stroke="#FBFBFB" stroke-width="1.2"/>
<line x1="6.6001" y1="15.6" x2="0.600098" y2="15.6" stroke="#FBFBFB" stroke-width="1.2"/>
<line x1="15.6001" y1="6.6" x2="9.6001" y2="6.6" stroke="#FBFBFB" stroke-width="1.2"/>
</svg>
